<svg width="24" height="25" viewBox="0 0 24 25" fill="none" xmlns="http://www.w3.org/2000/svg">
<rect y="0.941132" width="24" height="24" rx="6" fill="white"/>
<path d="M12 6.38691C14.1205 6.38691 14.4096 6.38691 15.2771 6.38691C16.0482 6.38691 16.4337 6.57969 16.7229 6.67607C17.1084 6.86884 17.3976 6.96523 17.6867 7.25439C17.9759 7.54354 18.1687 7.8327 18.2651 8.21824C18.3614 8.5074 18.4578 8.89294 18.5542 9.66402C18.5542 10.5315 18.5542 10.7243 18.5542 12.9411C18.5542 15.158 18.5542 15.3508 18.5542 16.2182C18.5542 16.9893 18.3614 17.3749 18.2651 17.664C18.0723 18.0496 17.9759 18.3387 17.6867 18.6279C17.3976 18.917 17.1084 19.1098 16.7229 19.2062C16.4337 19.3026 16.0482 19.399 15.2771 19.4953C14.4096 19.4953 14.2169 19.4953 12 19.4953C9.78313 19.4953 9.59036 19.4953 8.72289 19.4953C7.95181 19.4953 7.56627 19.3026 7.27711 19.2062C6.89157 19.0134 6.60241 18.917 6.31325 18.6279C6.0241 18.3387 5.83133 18.0496 5.73494 17.664C5.63855 17.3749 5.54217 16.9893 5.44578 16.2182C5.44578 15.3508 5.44578 15.158 5.44578 12.9411C5.44578 10.7243 5.44578 10.5315 5.44578 9.66402C5.44578 8.89294 5.63855 8.5074 5.73494 8.21824C5.92771 7.8327 6.0241 7.54354 6.31325 7.25439C6.60241 6.96523 6.89157 6.77246 7.27711 6.67607C7.56627 6.57969 7.95181 6.4833 8.72289 6.38691C9.59036 6.38691 9.87952 6.38691 12 6.38691ZM12 4.94113C9.78313 4.94113 9.59036 4.94113 8.72289 4.94113C7.85542 4.94113 7.27711 5.1339 6.79518 5.32667C6.31325 5.51945 5.83133 5.8086 5.3494 6.29053C4.86747 6.77246 4.6747 7.158 4.38554 7.73631C4.19277 8.21824 4.09639 8.79655 4 9.66402C4 10.5315 4 10.8207 4 12.9411C4 15.158 4 15.3508 4 16.2182C4 17.0857 4.19277 17.664 4.38554 18.146C4.57831 18.6279 4.86747 19.1098 5.3494 19.5917C5.83133 20.0737 6.21687 20.2664 6.79518 20.5556C7.27711 20.7484 7.85542 20.8447 8.72289 20.9411C9.59036 20.9411 9.87952 20.9411 12 20.9411C14.1205 20.9411 14.4096 20.9411 15.2771 20.9411C16.1446 20.9411 16.7229 20.7484 17.2048 20.5556C17.6867 20.3628 18.1687 20.0737 18.6506 19.5917C19.1325 19.1098 19.3253 18.7243 19.6145 18.146C19.8072 17.664 19.9036 17.0857 20 16.2182C20 15.3508 20 15.0616 20 12.9411C20 10.8207 20 10.5315 20 9.66402C20 8.79655 19.8072 8.21824 19.6145 7.73631C19.4217 7.25439 19.1325 6.77246 18.6506 6.29053C18.1687 5.8086 17.7831 5.61583 17.2048 5.32667C16.7229 5.1339 16.1446 5.03752 15.2771 4.94113C14.4096 4.94113 14.2169 4.94113 12 4.94113Z" fill="#830000"/>
<path d="M12 8.79655C9.68675 8.79655 7.85542 10.6279 7.85542 12.9411C7.85542 15.2544 9.68675 17.0857 12 17.0857C14.3133 17.0857 16.1446 15.2544 16.1446 12.9411C16.1446 10.6279 14.3133 8.79655 12 8.79655ZM12 15.6399C10.5542 15.6399 9.30121 14.4833 9.30121 12.9411C9.30121 11.4953 10.4578 10.2423 12 10.2423C13.4458 10.2423 14.6988 11.399 14.6988 12.9411C14.6988 14.3869 13.4458 15.6399 12 15.6399Z" fill="#830000"/>
<path d="M16.241 9.66402C16.7733 9.66402 17.2048 9.23249 17.2048 8.70017C17.2048 8.16785 16.7733 7.73631 16.241 7.73631C15.7086 7.73631 15.2771 8.16785 15.2771 8.70017C15.2771 9.23249 15.7086 9.66402 16.241 9.66402Z" fill="#830000"/>
</svg>
